# xmcd CD database file
#
# Track frame offsets:
#	182
#	12137
#	24450
#	44272
#	56650
#	68477
#	86595
#	98877
#	114787
#	128082
#	141612
#	158972
#	170652
#	184242
#	197547
#	214777
#
# Disc length: 3085 seconds
#
# Revision: 4
# Processed by: cddbd v1.5.2PL0 Copyright (c) Steve Scherf et al.
# Submitted via: jetAudio 7
#
DISCID=d90c0b10
DTITLE=Various Artist - Country Music's Greatest Hits Disc 6
DYEAR=1900
DGENRE=Country
TTITLE0=The End Of The World
TTITLE1=500 Miles [Away From Home]
TTITLE2=El Paso
TTITLE3=Jackson
TTITLE4=Heartaches By The Number
TTITLE5=Honey
TTITLE6=Make The World Go Away
TTITLE7=The Gambler
TTITLE8=Here You Come Again
TTITLE9=D-I-V-O-R-C-E
TTITLE10=For The Good Times
TTITLE11=Don't It Make My Brown Eyes Blue
TTITLE12=Southern Nights
TTITLE13=Behind Closed Doors
TTITLE14=Sylvia's Mother
TTITLE15=A Boy Named Sue
EXTD=
EXTT0=
EXTT1=
EXTT2=
EXTT3=
EXTT4=
EXTT5=
EXTT6=
EXTT7=
EXTT8=
EXTT9=
EXTT10=
EXTT11=
EXTT12=
EXTT13=
EXTT14=
EXTT15=
PLAYORDER=
